<?xml version="1.0" encoding="utf-8"?>
<!-- Generator: Adobe Illustrator 19.0.0, SVG Export Plug-In . SVG Version: 6.00 Build 0)  -->
<svg version="1.1" id="Layer_1" xmlns="http://www.w3.org/2000/svg" xmlns:xlink="http://www.w3.org/1999/xlink" x="0px" y="0px"
	 viewBox="4 142 800 330" style="enable-background:new 4 142 800 330;" xml:space="preserve">
<style type="text/css">
	.st0{fill:#FFFFFF;}
	.st1{fill:#EF559E;}
	.st2{fill:none;}
</style>
<g id="XMLID_428_">
	<path id="XMLID_6_" class="st0" d="M254.4,354.5c-1.5,0.7-4,1.4-7.4,2.1c-3.4,0.6-7.5,1-12.4,1c-9.2,0-16.4-2.5-21.6-7.6
		c-5.2-5.1-7.8-12.3-7.8-21.7V299h-12.5v-23h12.5v-15.6l32.6-9V276h16.6v22.9h-16.6v23.9c0,7,2.8,10.5,8.3,10.5
		c2.6,0,5.3-0.6,8.2-1.7v22.9H254.4z"/>
	<path id="XMLID_8_" class="st0" d="M316,355.6v-45.4c0-7.9-3-11.9-9.1-11.9c-3,0-5.2,1.1-6.8,3.4c-1.6,2.3-2.3,5.1-2.3,8.7v45.2
		h-33.1V237.7h33.1v49h0.3c2.8-4.1,6.3-7.2,10.4-9.4c4.1-2.2,8.4-3.3,13.1-3.3c8.6,0,15.2,2.8,19.7,8.3s6.8,13.6,6.8,24.4v48.9H316z
		"/>
	<path id="XMLID_10_" class="st0" d="M391.5,325.2c0.6,3.4,2.5,6.1,5.9,8c3.4,1.9,7.8,2.9,13.4,2.9c7.7,0,15-1.5,21.9-4.4v21
		c-8,3.2-17.8,4.8-29.2,4.8c-13.9,0-24.7-3.5-32.4-10.6c-7.7-7.1-11.6-16.9-11.6-29.3c0-8.5,1.7-16.1,5.1-22.6s8.4-11.6,15.1-15.4
		c6.7-3.7,14-5.6,22-5.6c8.2,0,15.3,1.6,21.1,4.8c5.9,3.2,10.3,7.7,13.3,13.5s4.5,12.6,4.5,20.4v12.4h-49.1V325.2z M411.4,307.9
		c0-9.2-3.3-13.8-9.9-13.8c-2.7,0-5.1,1.3-6.9,3.8c-1.9,2.5-3,5.8-3.3,10H411.4z"/>
	<path id="XMLID_13_" class="st1" d="M513.5,261.8c-3.4-1.2-6.6-1.8-9.6-1.8c-3.7,0-6.4,0.9-8.2,2.8c-1.8,1.9-2.6,4.4-2.6,7.7v5.4
		h18.4v22.9h-18.4v56.7H460v-56.7h-13.4V276H460v-7.3c0-6.5,1.5-12.2,4.5-17.1c3-4.9,7.4-8.8,13.1-11.5c5.7-2.7,12.7-4.1,20.9-4.1
		c5.9,0,10.9,0.6,15,1.7V261.8z"/>
	<path id="XMLID_15_" class="st1" d="M520.8,355.6V237.7h33.1v117.8h-33.1V355.6z"/>
	<path id="XMLID_17_" class="st1" d="M620.5,355.6v-12.3h-0.3c-2.7,3.8-5.2,6.6-7.4,8.3c-2.2,1.8-4.7,3.2-7.5,4.3
		c-2.8,1.1-6,1.6-9.7,1.6c-8.7,0-15.3-2.8-19.9-8.5c-4.6-5.6-6.8-14-6.8-25v-48H602v45.5c0,7.8,2.9,11.7,8.8,11.7
		c3.2,0,5.6-1.1,7.3-3.2c1.6-2.1,2.4-5.1,2.4-9v-45h33.1v79.6H620.5z"/>
	<path id="XMLID_19_" class="st1" d="M759.2,313.4c0,8.7-1.4,16.4-4.3,23.1c-2.9,6.7-7,11.9-12.2,15.5c-5.3,3.7-11.3,5.5-18,5.5
		c-5.1,0-9.5-0.9-13.2-2.8c-3.7-1.9-6.5-4.3-8.7-7.3h-0.3v8.2h-33.1V237.7h33.1v49h0.3c2.6-3.9,6.1-7,10.5-9.3s9.3-3.4,14.7-3.4
		c10.1,0,17.8,3.3,23.1,10C756.6,290.8,759.2,300.5,759.2,313.4z M725.7,314.4c0-5.3-1-9.4-3.1-12c-2-2.7-5-4-8.8-4
		c-3.4,0-6.2,1.4-8.4,4.2c-2.3,2.8-3.4,6.5-3.4,11v4.8c0,4.6,1,8.2,3,10.9s4.7,4,8.2,4c4,0,7.1-1.6,9.2-4.9
		C724.6,325,725.7,320.4,725.7,314.4z"/>
</g>
<g id="XMLID_587_">
	<path id="XMLID_1012_" class="st2" d="M139.4,205.6c5.1-3.9,15.5-11.7,26.3-15.6c-4.9-0.9-11.4-1.8-19-2.1c-0.2,0-0.4,0-0.7,0
		c-3.7,0-7.3,1.5-9.9,4c-5.2,5.3-7.2,8.9-7.4,10.8c2,0.8,6,2.4,10,3.4C138.9,205.9,139.1,205.7,139.4,205.6z"/>
	<path id="XMLID_1008_" class="st2" d="M118.3,204.1c2-0.5,3.7-2.1,4.1-4.1c1-4.3-2.7-8-7-7c-2,0.5-3.7,2.1-4.1,4.1
		C110.3,201.4,114.1,205.1,118.3,204.1z"/>
	<path id="XMLID_1004_" class="st0" d="M101.8,386.7c-0.2-0.7-0.3-1.3-0.3-1.8c0.4-10.7,16.1-38.4,16.1-38.4s-28.2,15.1-30.4,16.7
		c0,0,7.5,8.4,7.7,25.6C96.9,388.8,99.6,388.4,101.8,386.7z"/>
	<path id="XMLID_1000_" class="st0" d="M104.1,390.8c-2.3,1.6-5,2.3-7.4,2.6c3.9,5.1,13.8,11.9,23.8,18.1l-11.9,14.8
		c0,0,13.6-8.5,16.1-12.3c11.4,6.9,21.8,12.3,21.8,12.3S113.8,404.1,104.1,390.8z"/>
	<path id="XMLID_973_" class="st0" d="M78.5,398.4c0.1-0.9,0.1-1.7,0-2.6c-1.7,0.6-3.4,0.8-5,0.8c-0.4,0-0.9-0.1-1.3-0.1
		c1.8,4.3,4.3,9.5,7.4,14.6l0,0c0,0-5.8,9.7-9.4,18c0,0,9.2-8.4,12.4-13.2c7.6,7.4,12.9,11.6,19.3,14.9
		C101.9,430.9,77.4,406,78.5,398.4z"/>
	<path id="XMLID_589_" class="st0" d="M77.4,391.2c-1.5-5.9-2.6-14.9,7.4-35.3c13.7-6.6,29.4-14.4,36.4-20.8
		c22.6-21,21.2-57.7,15.5-72c-5.7-14.2-16.8-19.7-11.9-30.4c3.4-7.4,10.5-18.2,14.5-24.1c4.9-3.6,22.3-17.7,37.1-18.7
		c0,0-11.9-3.6-29.6-4.4c-0.3,0-0.5,0-0.8,0s-0.6,0-0.9,0l0,0c-16-1.9-51.2,3.8-51.2,3.8s10.9,4.7-3.4,17s-1.8,42.1-1.8,42.1
		S84,262,74.2,272.7c-10.8,11.8-54.3,74.8-54.3,74.8s1.1,0.2,3,0.4c9.7,0.9,19.4-1.6,27.6-6.8c11.2-7.2,26.1-18.5,44.4-36.1
		c0,0-15.3,19-35,38.2c-12.8,12.5-25,25.4-36.5,39.1c-7.7,9.2-15.1,16.5-19.4,17c0,0,11.5,6.3,24.7-0.8c13.3-7.2,25.1-24.9,33.8-31
		l0,0c3,5.8,7.7,15.7,7.1,19.6c-0.1,0.9,0.1,2.4,0.8,4.5C72.3,392,74.9,392.3,77.4,391.2z M136.2,191.8c2.5-2.6,6.1-4,9.9-4
		c0.2,0,0.4,0,0.7,0c7.6,0.4,14.1,1.2,19,2.1c-10.9,4-21.2,11.8-26.3,15.6c-0.2,0.2-0.4,0.3-0.6,0.5c-3.9-1-8-2.6-10-3.4
		C128.9,200.7,130.9,197.2,136.2,191.8z M111.3,197.1c0.5-2,2.1-3.7,4.1-4.1c4.3-1,8,2.7,7,7c-0.5,2-2.1,3.7-4.1,4.1
		C114.1,205.1,110.3,201.4,111.3,197.1z"/>
	<path id="XMLID_588_" class="st1" d="M81.1,248.3c0,0-12.5-29.9,1.8-42.1c14.3-12.2,3.4-17,3.4-17s-1,0.2-2.4,0.4
		c-5.5,0.9-18.8,2.7-22.3-0.8C61.5,188.9,38.4,228.6,81.1,248.3z"/>
</g>
<g id="XMLID_443_">
	<path id="XMLID_2_" class="st0" d="M782.4,205.6c3.5,0,6.8,0.9,10.1,2.7c3.3,1.8,5.9,4.3,7.7,7.6c1.8,3.3,2.8,6.8,2.8,10.3
		c0,3.6-0.9,7-2.7,10.3s-4.4,5.8-7.6,7.6c-3.3,1.8-6.7,2.7-10.3,2.7s-7-0.9-10.3-2.7c-3.3-1.8-5.8-4.4-7.6-7.6s-2.7-6.7-2.7-10.3
		c0-3.6,0.9-7,2.8-10.3c1.8-3.3,4.4-5.9,7.7-7.6C775.5,206.5,778.9,205.6,782.4,205.6z M782.4,209c-2.9,0-5.7,0.7-8.5,2.2
		c-2.7,1.5-4.9,3.6-6.4,6.4c-1.6,2.8-2.3,5.6-2.3,8.6s0.8,5.8,2.3,8.5s3.6,4.8,6.4,6.4c2.8,1.6,5.6,2.3,8.6,2.3s5.8-0.8,8.6-2.3
		c2.7-1.5,4.9-3.6,6.4-6.4c1.5-2.7,2.3-5.6,2.3-8.5c0-3-0.8-5.9-2.3-8.6c-1.5-2.8-3.7-4.9-6.4-6.4C788.1,209.8,785.3,209,782.4,209z
		 M789,229.6l3.4,1c-0.5,2.3-1.7,4.1-3.5,5.5c-1.8,1.4-3.9,2-6.5,2c-3.2,0-5.8-1-7.8-3.1s-3-5-3-8.6c0-2.4,0.5-4.5,1.4-6.3
		c0.9-1.8,2.2-3.1,3.9-4c1.7-0.9,3.6-1.4,5.8-1.4c2.4,0,4.4,0.6,6,1.7c1.6,1.2,2.7,2.7,3.3,4.7l-3.3,0.8c-0.5-1.3-1.4-2.4-2.4-3.1
		c-1.1-0.7-2.3-1.1-3.8-1.1c-2.1,0-3.8,0.7-5.2,2.2s-2,3.6-2,6.4c0,2.8,0.6,4.9,1.9,6.3c1.3,1.4,2.9,2.1,5,2.1
		c1.6,0,3.1-0.5,4.3-1.4C787.8,232.5,788.6,231.2,789,229.6z"/>
</g>
</svg>
